<svg viewBox="274.104 221.616 425.736 534.6" xmlns="http://www.w3.org/2000/svg" data-name="Layer 1" id="Layer_1" style="max-height: 500px" width="425.736" height="534.6">
  <defs>
    <style>
      .cls-1 {
        fill: #fff;
      }

      .cls-2 {
        fill: #1f2a44;
      }
    </style>
  </defs>
  <path d="M664.47,588.62c-32.93,73.24-104.58,127.2-178.67,153.95-100.51-33.57-193.35-124.37-200.56-234.56-3.44-52.66-.25-206.5,2.18-209.22,66.51-18.88,130.97-43.01,194.8-69.35l201.41,70.7s18.78,204.13-19.15,288.49Z" class="cls-1"/>
  <g>
    <path d="M482.21,229.43l201.41,70.7s18.78,204.13-19.15,288.48c-32.93,73.24-104.58,127.2-178.67,153.95-100.51-33.57-193.36-124.38-200.56-234.56-3.44-52.66-.25-206.49,2.17-209.22,66.51-18.89,130.97-43.01,194.79-69.35ZM650.06,321.07c-58.14-10.5-110.42-38.07-166.07-55.43l-163.82,59.01s-20.73,174.87,12.84,250c18.19,40.72,57.1,77.02,93.95,101.5,10.46,6.95,50.97,31.27,60.92,29.88,17.28-2.42,68.45-37.63,83.18-50.16,39.41-33.56,74.78-88.51,79.21-141.14,5.21-61.97-.2-193.66-.2-193.66Z" class="cls-2"/>
    <path d="M606.62,360.33c20.94-2.44,30.73,14.86,23.24,34l-180.85,186.16c-3.47,3.58-8.18,5.7-13.16,5.93h0c-5.2.25-10.28-1.56-14.12-5.08-24.43-22.37-87.55-65.18-87.73-88.11,1.22-19.01,10.88-22.3,28.75-18.9,13.56,2.58,53.26,37.51,66.74,49.66,2.55,2.3,6.45,2.16,8.85-.29l151.6-155.47c4.44-3.75,10.96-7.25,16.68-7.92Z" class="cls-2"/>
  </g>
</svg>