<?xml version="1.0" encoding="UTF-8"?>
<svg id="Layer_1" data-name="Layer 1" xmlns="http://www.w3.org/2000/svg" viewBox="0 0 972 972">
  <defs>
    <style>
      .cls-1 {
        fill: #6b7280;
      }

      .cls-2 {
        fill: #fff;
      }

      .cls-3 {
        fill: #1f2a44;
      }
    </style>
  </defs>
  <path class="cls-2" d="M283.23,526.7c-13.06,29.05-41.47,50.44-70.86,61.05-39.86-13.31-76.68-49.32-79.53-93.02-1.37-20.89-.1-81.89.86-82.97,26.38-7.49,51.94-17.06,77.25-27.51l79.88,28.04s7.44,80.96-7.6,114.41Z"/>
  <g>
    <g>
      <path class="cls-3" d="M331.94,431.15h22.77c15.96,0,26.9,10.09,26.9,26.16s-10.94,26.16-26.9,26.16h-22.77v-52.33ZM354.16,471.67c8.19,0,13.69-5.31,13.69-14.35s-5.5-14.35-13.69-14.35h-8.6v28.71h8.6Z"/>
      <path class="cls-3" d="M428.46,472.04v11.44h-38.66v-52.33h37.77v11.44h-24.28v8.82h21.39v11.06h-21.39v9.57h25.18Z"/>
      <path class="cls-3" d="M480.48,450.51c0,11.89-8.26,19.29-21.39,19.29h-8.39v13.68h-13.62v-52.33h22.01c13.14,0,21.39,7.4,21.39,19.36ZM466.72,450.51c0-4.86-2.82-7.7-8.46-7.7h-7.57v15.33h7.57c5.64,0,8.46-2.84,8.46-7.63Z"/>
      <path class="cls-3" d="M526.78,472.04v11.44h-38.66v-52.33h37.77v11.44h-24.28v8.82h21.39v11.06h-21.39v9.57h25.18Z"/>
      <path class="cls-3" d="M581.2,431.15v52.33h-11.21l-21.26-27.88v27.88h-13.35v-52.33h11.21l21.26,27.88v-27.88h13.35Z"/>
      <path class="cls-3" d="M591.87,431.15h22.77c15.96,0,26.9,10.09,26.9,26.16s-10.94,26.16-26.9,26.16h-22.77v-52.33ZM614.09,471.67c8.19,0,13.69-5.31,13.69-14.35s-5.5-14.35-13.69-14.35h-8.6v28.71h8.6Z"/>
      <path class="cls-3" d="M681.31,473.31h-20.36l-3.78,10.17h-13.9l21.26-52.33h13.41l21.33,52.33h-14.17l-3.78-10.17ZM677.32,462.4l-6.19-16.75-6.19,16.75h12.38Z"/>
      <path class="cls-3" d="M749.97,469.13c0,9.05-6.88,14.35-19.81,14.35h-26v-52.33h24.63c12.66,0,18.85,5.61,18.85,13.68,0,5.01-2.34,9.05-6.47,11.36,5.43,2.09,8.81,6.58,8.81,12.93ZM717.64,441.84v10.09h9.35c4.54,0,6.88-1.72,6.88-5.08s-2.34-5.01-6.88-5.01h-9.35ZM736.22,467.48c0-3.59-2.48-5.31-7.16-5.31h-11.42v10.61h11.42c4.68,0,7.16-1.72,7.16-5.31Z"/>
      <path class="cls-3" d="M758.1,431.15h13.62v40.59h22.98v11.74h-36.6v-52.33Z"/>
      <path class="cls-3" d="M839.76,472.04v11.44h-38.66v-52.33h37.77v11.44h-24.28v8.82h21.39v11.06h-21.39v9.57h25.18Z"/>
    </g>
    <g>
      <path class="cls-1" d="M352.04,532.82h-15.77l-3.11,7.3h-6.04l14.19-31.54h5.77l14.24,31.54h-6.13l-3.15-7.3ZM350.1,528.23l-5.95-13.79-5.9,13.79h11.85Z"/>
      <path class="cls-1" d="M366.68,524.35c0-9.42,7.21-16.22,16.9-16.22,5.14,0,9.55,1.85,12.48,5.27l-3.78,3.56c-2.3-2.48-5.14-3.7-8.43-3.7-6.53,0-11.26,4.6-11.26,11.08s4.73,11.08,11.26,11.08c3.29,0,6.13-1.22,8.43-3.74l3.78,3.6c-2.93,3.42-7.34,5.27-12.52,5.27-9.64,0-16.85-6.8-16.85-16.22Z"/>
      <path class="cls-1" d="M402.8,524.35c0-9.42,7.21-16.22,16.9-16.22,5.14,0,9.55,1.85,12.48,5.27l-3.78,3.56c-2.3-2.48-5.14-3.7-8.43-3.7-6.53,0-11.26,4.6-11.26,11.08s4.73,11.08,11.26,11.08c3.29,0,6.13-1.22,8.43-3.74l3.78,3.6c-2.93,3.42-7.34,5.27-12.52,5.27-9.64,0-16.85-6.8-16.85-16.22Z"/>
      <path class="cls-1" d="M438.93,524.35c0-9.33,7.21-16.22,16.99-16.22s16.99,6.85,16.99,16.22-7.21,16.22-16.99,16.22-16.99-6.89-16.99-16.22ZM467,524.35c0-6.44-4.73-11.08-11.08-11.08s-11.08,4.64-11.08,11.08,4.73,11.08,11.08,11.08,11.08-4.64,11.08-11.08Z"/>
      <path class="cls-1" d="M482.9,526.38v-17.8h5.86v17.57c0,6.49,2.93,9.28,8.02,9.28s7.97-2.79,7.97-9.28v-17.57h5.77v17.8c0,9.19-5.18,14.19-13.79,14.19s-13.83-5-13.83-14.19Z"/>
      <path class="cls-1" d="M550.79,508.58v31.54h-4.82l-17.39-21.36v21.36h-5.81v-31.54h4.82l17.39,21.36v-21.36h5.81Z"/>
      <path class="cls-1" d="M569.71,513.54h-10.45v-4.96h26.76v4.96h-10.45v26.58h-5.86v-26.58Z"/>
      <path class="cls-1" d="M594.48,508.58h5.86v31.54h-5.86v-31.54Z"/>
      <path class="cls-1" d="M640.93,508.58v31.54h-4.82l-17.39-21.36v21.36h-5.81v-31.54h4.82l17.39,21.36v-21.36h5.81Z"/>
      <path class="cls-1" d="M674.98,523.99h5.54v12.57c-3.29,2.66-7.88,4.01-12.35,4.01-9.78,0-16.99-6.8-16.99-16.22s7.21-16.22,17.08-16.22c5.27,0,9.69,1.76,12.66,5.13l-3.69,3.61c-2.48-2.48-5.32-3.61-8.7-3.61-6.71,0-11.44,4.55-11.44,11.08s4.73,11.08,11.4,11.08c2.25,0,4.46-.45,6.49-1.62v-9.82Z"/>
      <path class="cls-1" d="M706.51,524.35c0-9.42,7.21-16.22,16.9-16.22,5.14,0,9.55,1.85,12.48,5.27l-3.78,3.56c-2.3-2.48-5.14-3.7-8.43-3.7-6.53,0-11.26,4.6-11.26,11.08s4.73,11.08,11.26,11.08c3.29,0,6.13-1.22,8.43-3.74l3.78,3.6c-2.93,3.42-7.34,5.27-12.52,5.27-9.64,0-16.85-6.8-16.85-16.22Z"/>
      <path class="cls-1" d="M742.64,524.35c0-9.33,7.21-16.22,16.99-16.22s16.99,6.85,16.99,16.22-7.21,16.22-16.99,16.22-16.99-6.89-16.99-16.22ZM770.71,524.35c0-6.44-4.73-11.08-11.08-11.08s-11.08,4.64-11.08,11.08,4.73,11.08,11.08,11.08,11.08-4.64,11.08-11.08Z"/>
      <path class="cls-1" d="M783.54,536.7c0-2.25,1.67-3.74,3.7-3.74s3.69,1.49,3.69,3.74-1.67,3.74-3.69,3.74-3.7-1.58-3.7-3.74Z"/>
    </g>
  </g>
  <g>
    <path class="cls-3" d="M210.95,384.25l79.87,28.04s7.45,80.95-7.59,114.41c-13.06,29.05-41.47,50.44-70.86,61.05-39.86-13.31-76.68-49.33-79.54-93.02-1.37-20.89-.1-81.89.86-82.97,26.38-7.49,51.94-17.06,77.25-27.5ZM277.51,420.59c-23.06-4.16-43.79-15.1-65.86-21.98l-64.97,23.4s-8.22,69.35,5.09,99.15c7.22,16.15,22.65,30.55,37.26,40.25,4.15,2.75,20.21,12.4,24.16,11.85,6.85-.96,27.15-14.92,32.99-19.89,15.63-13.31,29.66-35.1,31.41-55.97,2.07-24.58-.08-76.8-.08-76.8Z"/>
    <path class="cls-1" d="M214.8,487.86l-.04,72.76s-21.43-8.05-30.91-16.78c-14.46-13.31-25.38-31.72-25.52-51.75,0,0,20.22,16.26,24.66,18.92,1.61.97,2.91,1.73,4.91,1.43,4.06-.61,26.9-24.6,26.9-24.6Z"/>
    <path class="cls-3" d="M230.98,436.13c5.5-.64,8.07,3.9,6.1,8.92l-47.47,48.87c-.91.94-2.15,1.5-3.45,1.56h0c-1.36.06-2.7-.41-3.71-1.33-6.41-5.87-22.98-17.11-23.03-23.13.32-4.99,2.86-5.85,7.55-4.96,3.56.68,13.98,9.85,17.52,13.04.67.6,1.69.57,2.32-.08l39.79-40.81c1.17-.98,2.88-1.9,4.38-2.08Z"/>
    <path class="cls-1" d="M264.87,437.79v36.18c0,18.99-4.56,37.71-13.3,54.57h0s.05-77.14.05-77.14l13.25-13.6Z"/>
    <path class="cls-1" d="M239.38,462.37v65.68c0,10.01-4.43,19.51-12.09,25.94h0s-.6-78.37-.6-78.37l12.69-13.25Z"/>
  </g>
</svg>