<svg version="1.0" preserveAspectRatio="xMidYMid meet" viewBox="453.54330708661416 145.79999874 531.2935883014623 518.3999955200001" zoomAndPan="magnify" xmlns:xlink="http://www.w3.org/1999/xlink" xmlns="http://www.w3.org/2000/svg" style="max-height: 500px" width="531.2935883014623" height="518.3999955200001"><defs><g/><clipPath id="5b47e0f7e0"><path clip-rule="nonzero" d="M 476.175781 161.757812 L 962.550781 161.757812 L 962.550781 648.132812 L 476.175781 648.132812 Z M 476.175781 161.757812"/></clipPath><clipPath id="265c8945e9"><path clip-rule="nonzero" d="M 719.363281 161.757812 C 585.054688 161.757812 476.175781 270.636719 476.175781 404.945312 C 476.175781 539.253906 585.054688 648.132812 719.363281 648.132812 C 853.671875 648.132812 962.550781 539.253906 962.550781 404.945312 C 962.550781 270.636719 853.671875 161.757812 719.363281 161.757812 Z M 719.363281 161.757812"/></clipPath><clipPath id="937aec048b"><path clip-rule="nonzero" d="M 0.175781 0.757812 L 486.550781 0.757812 L 486.550781 487.132812 L 0.175781 487.132812 Z M 0.175781 0.757812"/></clipPath><clipPath id="9459413fe5"><path clip-rule="nonzero" d="M 243.363281 0.757812 C 109.054688 0.757812 0.175781 109.636719 0.175781 243.945312 C 0.175781 378.253906 109.054688 487.132812 243.363281 487.132812 C 377.671875 487.132812 486.550781 378.253906 486.550781 243.945312 C 486.550781 109.636719 377.671875 0.757812 243.363281 0.757812 Z M 243.363281 0.757812"/></clipPath><clipPath id="cd779fbffb"><rect height="488" y="0" width="487" x="0"/></clipPath><clipPath id="9c32185013"><rect height="346" y="0" width="423" x="0"/></clipPath></defs><g clip-path="url(#5b47e0f7e0)"><g clip-path="url(#265c8945e9)"><g transform="matrix(1, 0, 0, 1, 476, 161)"><g clip-path="url(#cd779fbffb)"><g clip-path="url(#937aec048b)"><g clip-path="url(#9459413fe5)"><path fill-rule="nonzero" fill-opacity="1" d="M 0.175781 0.757812 L 486.550781 0.757812 L 486.550781 487.132812 L 0.175781 487.132812 Z M 0.175781 0.757812" fill="#fbfaf5"/></g></g></g></g></g></g><g transform="matrix(1, 0, 0, 1, 514, 232)"><g clip-path="url(#9c32185013)"><g fill-opacity="1" fill="#000000"><g transform="translate(0.964336, 255.901172)"><g><path d="M 13.609375 0 L 13.609375 -8.171875 C 16.148438 -8.171875 19.78125 -8.441406 24.5 -8.984375 C 29.21875 -9.523438 33.570312 -10.703125 37.5625 -12.515625 L 37.5625 -180.484375 C 33.570312 -181.753906 29.351562 -182.390625 24.90625 -182.390625 C 20.457031 -182.390625 16.960938 -182.296875 14.421875 -182.109375 L 13.609375 -190.28125 C 25.953125 -191.914062 38.609375 -193.320312 51.578125 -194.5 C 64.554688 -195.675781 77.488281 -196.265625 90.375 -196.265625 C 113.789062 -196.265625 134.753906 -192.585938 153.265625 -185.234375 C 171.773438 -177.890625 186.335938 -167.003906 196.953125 -152.578125 C 207.566406 -138.148438 212.875 -120.320312 212.875 -99.09375 C 212.875 -84.570312 209.425781 -70.867188 202.53125 -57.984375 C 195.632812 -45.097656 186.332031 -34.070312 174.625 -24.90625 C 162.914062 -15.738281 149.625 -9.160156 134.75 -5.171875 C 128.757812 -3.535156 121 -2.265625 111.46875 -1.359375 C 101.945312 -0.453125 92.921875 0 84.390625 0 Z M 61.25 -18.78125 C 65.96875 -16.96875 71.226562 -15.515625 77.03125 -14.421875 C 82.84375 -13.335938 89.195312 -12.796875 96.09375 -12.796875 C 113.875 -12.796875 129.523438 -15.96875 143.046875 -22.3125 C 156.566406 -28.664062 167.140625 -37.738281 174.765625 -49.53125 C 182.390625 -61.332031 186.203125 -75.398438 186.203125 -91.734375 C 186.203125 -107.890625 182.976562 -122.132812 176.53125 -134.46875 C 170.09375 -146.8125 161.15625 -156.929688 149.71875 -164.828125 C 138.289062 -172.722656 125.039062 -178.164062 109.96875 -181.15625 C 94.90625 -184.15625 78.664062 -184.382812 61.25 -181.84375 Z M 61.25 -18.78125"/></g></g></g><g fill-opacity="1" fill="#000000"><g transform="translate(214.914712, 255.901172)"><g><path d="M 1.09375 0 L 1.09375 -8.171875 C 3.082031 -8.171875 5.9375 -8.441406 9.65625 -8.984375 C 13.382812 -9.523438 16.972656 -10.613281 20.421875 -12.25 L 89.015625 -181.03125 L 84.9375 -192.453125 L 107.25 -200.625 L 175.578125 -12.515625 C 179.210938 -10.703125 183.023438 -9.523438 187.015625 -8.984375 C 191.003906 -8.441406 194.085938 -8.171875 196.265625 -8.171875 L 196.265625 0 L 126.3125 0 L 126.3125 -8.171875 C 128.851562 -8.171875 132.484375 -8.441406 137.203125 -8.984375 C 141.921875 -9.523438 146.273438 -10.703125 150.265625 -12.515625 L 130.125 -67.78125 L 58.796875 -67.78125 L 36.203125 -12.515625 C 40.378906 -10.703125 44.78125 -9.523438 49.40625 -8.984375 C 54.03125 -8.441406 57.613281 -8.171875 60.15625 -8.171875 L 60.15625 0 Z M 64.515625 -81.671875 L 125.21875 -81.671875 L 96.640625 -160.34375 Z M 64.515625 -81.671875"/></g></g></g></g></g></svg>