<?xml version="1.0" encoding="UTF-8"?>
<svg id="Layer_1" xmlns="http://www.w3.org/2000/svg" version="1.1" viewBox="0 0 972 972">
  <!-- Generator: Adobe Illustrator 30.0.0, SVG Export Plug-In . SVG Version: 2.1.1 Build 123)  -->
  <defs>
    <style>
      .st0 {
        fill: #fff;
      }
    </style>
  </defs>
  <path class="st0" d="M482.2,229.4l201.4,70.7s18.8,204.1-19.2,288.5c-32.9,73.2-104.6,127.2-178.7,154-100.5-33.6-193.4-124.4-200.6-234.6-3.4-52.7-.2-206.5,2.2-209.2,66.5-18.9,131-43,194.8-69.4h0ZM650.1,321.1c-58.1-10.5-110.4-38.1-166.1-55.4l-163.8,59s-20.7,174.9,12.8,250c18.2,40.7,57.1,77,93.9,101.5,10.5,7,51,31.3,60.9,29.9,17.3-2.4,68.5-37.6,83.2-50.2,39.4-33.6,74.8-88.5,79.2-141.1,5.2-62-.2-193.7-.2-193.7h0Z"/>
  <path class="st0" d="M491.9,490.7v183.5c-.1,0-54.1-20.3-78.1-42.3-36.5-33.6-64-80-64.4-130.5,0,0,51,41,62.2,47.7,4.1,2.4,7.3,4.4,12.4,3.6,10.2-1.5,67.8-62,67.8-62h0Z"/>
  <path class="st0" d="M532.7,360.3c13.9-1.6,20.3,9.8,15.4,22.5l-119.7,123.2c-2.3,2.4-5.4,3.8-8.7,3.9h0c-3.4.2-6.8-1-9.4-3.4-16.2-14.8-58-43.1-58.1-58.3.8-12.6,7.2-14.8,19-12.5,9,1.7,35.2,24.8,44.2,32.9,1.7,1.5,4.3,1.4,5.9-.2l100.3-102.9c2.9-2.5,7.2-4.8,11-5.2h0Z"/>
  <path class="st0" d="M618.2,364.4v91.2c0,47.9-11.5,95.1-33.5,137.6h0v-194.5c.1,0,33.5-34.3,33.5-34.3h0Z"/>
  <path class="st0" d="M553.9,426.4v165.6c0,25.2-11.2,49.2-30.5,65.4h0l-1.5-197.6,32-33.4h0Z"/>
</svg>