<svg viewBox="112.75200000000001 371.30400000000003 740.664 227.448" version="1.1" xmlns="http://www.w3.org/2000/svg" id="Layer_1" style="max-height: 500px" width="740.664" height="227.448">
  
  <defs>
    <style>
      .st0 {
        fill: #fff;
      }
    </style>
  </defs>
  <g>
    <g>
      <path d="M331.9,431.1h22.8c16,0,26.9,10.1,26.9,26.2s-10.9,26.2-26.9,26.2h-22.8v-52.3h0ZM354.2,471.7c8.2,0,13.7-5.3,13.7-14.4s-5.5-14.4-13.7-14.4h-8.6v28.7h8.6Z" class="st0"/>
      <path d="M428.5,472v11.4h-38.7v-52.3h37.8v11.4h-24.3v8.8h21.4v11.1h-21.4v9.6h25.2,0Z" class="st0"/>
      <path d="M480.5,450.5c0,11.9-8.3,19.3-21.4,19.3h-8.4v13.7h-13.6v-52.3h22c13.1,0,21.4,7.4,21.4,19.4h0ZM466.7,450.5c0-4.9-2.8-7.7-8.5-7.7h-7.6v15.3h7.6c5.6,0,8.5-2.8,8.5-7.6h0Z" class="st0"/>
      <path d="M526.8,472v11.4h-38.7v-52.3h37.8v11.4h-24.3v8.8h21.4v11.1h-21.4v9.6h25.2,0Z" class="st0"/>
      <path d="M581.2,431.1v52.3h-11.2l-21.3-27.9v27.9h-13.3v-52.3h11.2l21.3,27.9v-27.9h13.3Z" class="st0"/>
      <path d="M591.9,431.1h22.8c16,0,26.9,10.1,26.9,26.2s-10.9,26.2-26.9,26.2h-22.8v-52.3h0ZM614.1,471.7c8.2,0,13.7-5.3,13.7-14.4s-5.5-14.4-13.7-14.4h-8.6v28.7h8.6Z" class="st0"/>
      <path d="M681.3,473.3h-20.4l-3.8,10.2h-13.9l21.3-52.3h13.4l21.3,52.3h-14.2l-3.8-10.2h0ZM677.3,462.4l-6.2-16.8-6.2,16.8h12.4Z" class="st0"/>
      <path d="M750,469.1c0,9-6.9,14.4-19.8,14.4h-26v-52.3h24.6c12.7,0,18.8,5.6,18.8,13.7s-2.3,9-6.5,11.4c5.4,2.1,8.8,6.6,8.8,12.9h0ZM717.6,441.8v10.1h9.3c4.5,0,6.9-1.7,6.9-5.1s-2.3-5-6.9-5h-9.3ZM736.2,467.5c0-3.6-2.5-5.3-7.2-5.3h-11.4v10.6h11.4c4.7,0,7.2-1.7,7.2-5.3h0Z" class="st0"/>
      <path d="M758.1,431.1h13.6v40.6h23v11.7h-36.6v-52.3h0Z" class="st0"/>
      <path d="M839.8,472v11.4h-38.7v-52.3h37.8v11.4h-24.3v8.8h21.4v11.1h-21.4v9.6h25.2,0Z" class="st0"/>
    </g>
    <g>
      <path d="M352,532.8h-15.8l-3.1,7.3h-6l14.2-31.5h5.8l14.2,31.5h-6.1l-3.1-7.3ZM350.1,528.2l-6-13.8-5.9,13.8h11.9Z" class="st0"/>
      <path d="M366.7,524.3c0-9.4,7.2-16.2,16.9-16.2s9.5,1.9,12.5,5.3l-3.8,3.6c-2.3-2.5-5.1-3.7-8.4-3.7-6.5,0-11.3,4.6-11.3,11.1s4.7,11.1,11.3,11.1,6.1-1.2,8.4-3.7l3.8,3.6c-2.9,3.4-7.3,5.3-12.5,5.3-9.6,0-16.9-6.8-16.9-16.2h0Z" class="st0"/>
      <path d="M402.8,524.3c0-9.4,7.2-16.2,16.9-16.2s9.5,1.9,12.5,5.3l-3.8,3.6c-2.3-2.5-5.1-3.7-8.4-3.7-6.5,0-11.3,4.6-11.3,11.1s4.7,11.1,11.3,11.1,6.1-1.2,8.4-3.7l3.8,3.6c-2.9,3.4-7.3,5.3-12.5,5.3-9.6,0-16.9-6.8-16.9-16.2h0Z" class="st0"/>
      <path d="M438.9,524.3c0-9.3,7.2-16.2,17-16.2s17,6.9,17,16.2-7.2,16.2-17,16.2-17-6.9-17-16.2ZM467,524.3c0-6.4-4.7-11.1-11.1-11.1s-11.1,4.6-11.1,11.1,4.7,11.1,11.1,11.1,11.1-4.6,11.1-11.1Z" class="st0"/>
      <path d="M482.9,526.4v-17.8h5.9v17.6c0,6.5,2.9,9.3,8,9.3s8-2.8,8-9.3v-17.6h5.8v17.8c0,9.2-5.2,14.2-13.8,14.2s-13.8-5-13.8-14.2h0Z" class="st0"/>
      <path d="M550.8,508.6v31.5h-4.8l-17.4-21.4v21.4h-5.8v-31.5h4.8l17.4,21.4v-21.4h5.8Z" class="st0"/>
      <path d="M569.7,513.5h-10.5v-5h26.8v5h-10.5v26.6h-5.9v-26.6Z" class="st0"/>
      <path d="M594.5,508.6h5.9v31.5h-5.9v-31.5Z" class="st0"/>
      <path d="M640.9,508.6v31.5h-4.8l-17.4-21.4v21.4h-5.8v-31.5h4.8l17.4,21.4v-21.4h5.8Z" class="st0"/>
      <path d="M675,524h5.5v12.6c-3.3,2.7-7.9,4-12.3,4-9.8,0-17-6.8-17-16.2s7.2-16.2,17.1-16.2,9.7,1.8,12.7,5.1l-3.7,3.6c-2.5-2.5-5.3-3.6-8.7-3.6-6.7,0-11.4,4.5-11.4,11.1s4.7,11.1,11.4,11.1,4.5-.5,6.5-1.6v-9.8h0Z" class="st0"/>
      <path d="M706.5,524.3c0-9.4,7.2-16.2,16.9-16.2s9.5,1.9,12.5,5.3l-3.8,3.6c-2.3-2.5-5.1-3.7-8.4-3.7-6.5,0-11.3,4.6-11.3,11.1s4.7,11.1,11.3,11.1,6.1-1.2,8.4-3.7l3.8,3.6c-2.9,3.4-7.3,5.3-12.5,5.3-9.6,0-16.8-6.8-16.8-16.2h0Z" class="st0"/>
      <path d="M742.6,524.3c0-9.3,7.2-16.2,17-16.2s17,6.9,17,16.2-7.2,16.2-17,16.2-17-6.9-17-16.2ZM770.7,524.3c0-6.4-4.7-11.1-11.1-11.1s-11.1,4.6-11.1,11.1,4.7,11.1,11.1,11.1,11.1-4.6,11.1-11.1Z" class="st0"/>
      <path d="M783.5,536.7c0-2.2,1.7-3.7,3.7-3.7s3.7,1.5,3.7,3.7-1.7,3.7-3.7,3.7-3.7-1.6-3.7-3.7Z" class="st0"/>
    </g>
  </g>
  <g>
    <path d="M211,384.2l79.9,28s7.5,80.9-7.6,114.4c-13.1,29-41.5,50.4-70.9,61-39.9-13.3-76.7-49.3-79.5-93-1.4-20.9-.1-81.9.9-83,26.4-7.5,51.9-17.1,77.2-27.5h0ZM277.5,420.6c-23.1-4.2-43.8-15.1-65.9-22l-65,23.4s-8.2,69.4,5.1,99.1c7.2,16.2,22.6,30.5,37.3,40.2,4.1,2.8,20.2,12.4,24.2,11.8,6.9-1,27.1-14.9,33-19.9,15.6-13.3,29.7-35.1,31.4-56,2.1-24.6,0-76.8,0-76.8h0Z" class="st0"/>
    <path d="M214.8,487.9v72.8s-21.5-8-30.9-16.8c-14.5-13.3-25.4-31.7-25.5-51.8,0,0,20.2,16.3,24.7,18.9,1.6,1,2.9,1.7,4.9,1.4,4.1-.6,26.9-24.6,26.9-24.6h0Z" class="st0"/>
    <path d="M231,436.1c5.5-.6,8.1,3.9,6.1,8.9l-47.5,48.9c-.9.9-2.1,1.5-3.4,1.6h0c-1.4,0-2.7-.4-3.7-1.3-6.4-5.9-23-17.1-23-23.1.3-5,2.9-5.9,7.6-5,3.6.7,14,9.9,17.5,13,.7.6,1.7.6,2.3,0l39.8-40.8c1.2-1,2.9-1.9,4.4-2.1h0Z" class="st0"/>
    <path d="M264.9,437.8v36.2c0,19-4.6,37.7-13.3,54.6h0v-77.1c0,0,13.3-13.6,13.3-13.6h0Z" class="st0"/>
    <path d="M239.4,462.4v65.7c0,10-4.4,19.5-12.1,25.9h0l-.6-78.4,12.7-13.2Z" class="st0"/>
  </g>
</svg>