<?xml version="1.0" encoding="UTF-8"?>
<svg id="Layer_1" data-name="Layer 1" xmlns="http://www.w3.org/2000/svg" viewBox="0 0 972 972">
  <defs>
    <style>
      .cls-1 {
        fill: #6b7280;
      }

      .cls-2 {
        fill: #fff;
      }

      .cls-3 {
        fill: #1f2a44;
      }
    </style>
  </defs>
  <path class="cls-2" d="M664.47,588.62c-32.93,73.24-104.58,127.2-178.67,153.95-100.51-33.57-193.35-124.37-200.56-234.56-3.44-52.66-.25-206.5,2.18-209.22,66.51-18.88,130.97-43.01,194.8-69.35l201.41,70.7s18.78,204.13-19.15,288.49Z"/>
  <g>
    <path class="cls-3" d="M482.21,229.43l201.41,70.7s18.78,204.13-19.15,288.48c-32.93,73.24-104.58,127.2-178.67,153.95-100.51-33.57-193.36-124.38-200.56-234.56-3.44-52.66-.25-206.49,2.17-209.22,66.51-18.89,130.97-43.01,194.79-69.35ZM650.06,321.07c-58.14-10.5-110.42-38.07-166.07-55.43l-163.82,59.01s-20.73,174.87,12.84,250c18.19,40.72,57.1,77.02,93.95,101.5,10.46,6.95,50.97,31.27,60.92,29.88,17.28-2.42,68.45-37.63,83.18-50.16,39.41-33.56,74.78-88.51,79.21-141.14,5.21-61.97-.2-193.66-.2-193.66Z"/>
    <path class="cls-1" d="M491.92,490.69l-.1,183.48s-54.04-20.29-77.95-42.3c-36.47-33.57-63.98-79.98-64.35-130.49,0,0,50.98,40.99,62.18,47.72,4.06,2.44,7.34,4.37,12.39,3.62,10.24-1.53,67.83-62.02,67.83-62.02Z"/>
    <path class="cls-3" d="M532.72,360.25c13.86-1.62,20.34,9.84,15.38,22.5l-119.7,123.22c-2.3,2.37-5.41,3.77-8.71,3.93h0c-3.44.16-6.8-1.03-9.35-3.36-16.17-14.81-57.95-43.14-58.07-58.32.81-12.58,7.2-14.76,19.03-12.51,8.98,1.71,35.25,24.83,44.17,32.87,1.69,1.52,4.27,1.43,5.86-.19l100.34-102.9c2.94-2.48,7.25-4.8,11.04-5.24Z"/>
    <path class="cls-1" d="M618.17,364.43v91.23c0,47.89-11.5,95.08-33.54,137.6h0s.13-194.52.13-194.52l33.41-34.3Z"/>
    <path class="cls-1" d="M553.9,426.41v165.61c0,25.24-11.16,49.19-30.49,65.41h0s-1.5-197.61-1.5-197.61l32-33.42Z"/>
  </g>
</svg>